<svg xmlns="http://www.w3.org/2000/svg" xmlns:xlink="http://www.w3.org/1999/xlink" width="700pt" height="700pt" version="1.1" viewBox="0 0 700 700">
    <defs>
        <symbol id="v" overflow="visible">
            <path d="m1.8281-0.10938c-0.09375 0.054688-0.19531 0.089844-0.29688 0.10938-0.09375 0.019531-0.19922 0.03125-0.3125 0.03125-0.33594 0-0.60156-0.085938-0.79688-0.26562-0.1875-0.1875-0.28125-0.44141-0.28125-0.76562 0-0.3125 0.09375-0.5625 0.28125-0.75 0.19531-0.1875 0.46094-0.28125 0.79688-0.28125 0.11328 0 0.21875 0.015625 0.3125 0.046875 0.10156 0.023437 0.20312 0.058594 0.29688 0.10938v0.40625c-0.09375-0.0625-0.1875-0.10938-0.28125-0.14062s-0.19531-0.046875-0.29688-0.046875c-0.17969 0-0.32031 0.0625-0.42188 0.1875-0.10547 0.11719-0.15625 0.27344-0.15625 0.46875 0 0.21094 0.050781 0.375 0.15625 0.5 0.10156 0.11719 0.24219 0.17188 0.42188 0.17188 0.10156 0 0.20312-0.015625 0.29688-0.046875s0.1875-0.078125 0.28125-0.14062z"/>
        </symbol>
        <symbol id="f" overflow="visible">
            <path d="m1.3438-1.0938c-0.042969-0.019531-0.085938-0.03125-0.125-0.03125-0.042969-0.007812-0.085938-0.015625-0.125-0.015625-0.125 0-0.22656 0.042969-0.29688 0.125-0.0625 0.074219-0.09375 0.18359-0.09375 0.32812v0.6875h-0.46875v-1.5h0.46875v0.25c0.0625-0.09375 0.12891-0.16016 0.20312-0.20312 0.082031-0.050781 0.17969-0.078125 0.29688-0.078125h0.046875c0.019531 0 0.050781 0.007812 0.09375 0.015625z"/>
        </symbol>
        <symbol id="a" overflow="visible">
            <path d="m1.7188-0.75v0.14062h-1.1094c0.007813 0.10547 0.046875 0.1875 0.10938 0.25 0.070312 0.054687 0.17188 0.078125 0.29688 0.078125 0.10156 0 0.20703-0.015625 0.3125-0.046875 0.10156-0.03125 0.21094-0.070313 0.32812-0.125v0.35938c-0.11719 0.042969-0.23047 0.074219-0.34375 0.09375-0.11719 0.019531-0.23047 0.03125-0.34375 0.03125-0.27344 0-0.48047-0.066406-0.625-0.20312-0.14844-0.13281-0.21875-0.32812-0.21875-0.57812 0-0.23828 0.070312-0.42578 0.21875-0.5625 0.14453-0.14453 0.34766-0.21875 0.60938-0.21875 0.22656 0 0.41016 0.074219 0.54688 0.21875 0.14453 0.13672 0.21875 0.32422 0.21875 0.5625zm-0.48438-0.15625c0-0.09375-0.027344-0.16406-0.078125-0.21875-0.054688-0.0625-0.125-0.09375-0.21875-0.09375-0.085938 0-0.15625 0.027344-0.21875 0.078125-0.0625 0.054687-0.10156 0.13281-0.10938 0.23438z"/>
        </symbol>
        <symbol id="e" overflow="visible">
            <path d="m0.90625-0.67188c-0.10547 0-0.18359 0.015625-0.23438 0.046875-0.054687 0.03125-0.078125 0.085938-0.078125 0.15625 0 0.0625 0.019531 0.10938 0.0625 0.14062 0.039062 0.03125 0.097656 0.046875 0.17188 0.046875 0.09375 0 0.16406-0.03125 0.21875-0.09375 0.0625-0.0625 0.09375-0.14453 0.09375-0.25v-0.046875zm0.71875-0.1875v0.85938h-0.48438v-0.21875c-0.0625 0.09375-0.13672 0.16406-0.21875 0.20312-0.074219 0.03125-0.16797 0.046875-0.28125 0.046875-0.15625 0-0.28125-0.039062-0.375-0.125-0.09375-0.09375-0.14062-0.21094-0.14062-0.35938 0-0.17578 0.054688-0.30078 0.17188-0.375 0.125-0.082031 0.3125-0.125 0.5625-0.125h0.28125v-0.046875c0-0.070312-0.03125-0.125-0.09375-0.15625-0.054687-0.039062-0.14062-0.0625-0.26562-0.0625-0.10547 0-0.20312 0.011719-0.29688 0.03125-0.085937 0.023438-0.16406 0.054688-0.23438 0.09375v-0.35938c0.10156-0.03125 0.20703-0.050781 0.3125-0.0625 0.10156-0.007813 0.20312-0.015625 0.29688-0.015625 0.26953 0 0.46094 0.054688 0.57812 0.15625 0.125 0.10547 0.1875 0.27734 0.1875 0.51562z"/>
        </symbol>
        <symbol id="d" overflow="visible">
            <path d="m0.75-1.9219v0.42188h0.5v0.34375h-0.5v0.64062c0 0.0625 0.007812 0.10938 0.03125 0.14062 0.03125 0.023438 0.085938 0.03125 0.17188 0.03125h0.25v0.34375h-0.40625c-0.1875 0-0.32422-0.035156-0.40625-0.10938-0.074219-0.082031-0.10938-0.21875-0.10938-0.40625v-0.64062h-0.25v-0.34375h0.25v-0.42188z"/>
        </symbol>
        <symbol id="k" overflow="visible">
            <path d="m1.25-1.2812v-0.79688h0.48438v2.0781h-0.48438v-0.21875c-0.074219 0.09375-0.15234 0.16406-0.23438 0.20312-0.074219 0.03125-0.16406 0.046875-0.26562 0.046875-0.17969 0-0.32812-0.070312-0.45312-0.21875-0.11719-0.14453-0.17188-0.33203-0.17188-0.5625 0-0.22656 0.054688-0.41406 0.17188-0.5625 0.125-0.14453 0.27344-0.21875 0.45312-0.21875 0.10156 0 0.19141 0.023438 0.26562 0.0625 0.082031 0.042969 0.16016 0.10547 0.23438 0.1875zm-0.3125 0.96875c0.09375 0 0.16406-0.035156 0.21875-0.10938 0.0625-0.070313 0.09375-0.17969 0.09375-0.32812 0-0.13281-0.03125-0.23828-0.09375-0.3125-0.054688-0.082031-0.125-0.125-0.21875-0.125-0.10547 0-0.18359 0.042969-0.23438 0.125-0.054687 0.074219-0.078125 0.17969-0.078125 0.3125 0 0.14844 0.023438 0.25781 0.078125 0.32812 0.050781 0.074219 0.12891 0.10938 0.23438 0.10938z"/>
        </symbol>
        <symbol id="j" overflow="visible">
            <path d="m1.0312-0.3125c0.09375 0 0.16406-0.035156 0.21875-0.10938 0.0625-0.070313 0.09375-0.17969 0.09375-0.32812 0-0.13281-0.03125-0.23828-0.09375-0.3125-0.054688-0.082031-0.125-0.125-0.21875-0.125-0.10547 0-0.1875 0.042969-0.25 0.125-0.054688 0.074219-0.078125 0.17969-0.078125 0.3125 0 0.14844 0.023437 0.25781 0.078125 0.32812 0.0625 0.074219 0.14453 0.10938 0.25 0.10938zm-0.32812-0.96875c0.070313-0.082031 0.14453-0.14453 0.21875-0.1875 0.082031-0.039062 0.17578-0.0625 0.28125-0.0625 0.1875 0 0.33594 0.074219 0.45312 0.21875 0.11328 0.14844 0.17188 0.33594 0.17188 0.5625 0 0.23047-0.058594 0.41797-0.17188 0.5625-0.11719 0.14844-0.26562 0.21875-0.45312 0.21875-0.10547 0-0.19922-0.015625-0.28125-0.046875-0.074219-0.039062-0.14844-0.10938-0.21875-0.20312v0.21875h-0.46875v-2.0781h0.46875z"/>
        </symbol>
        <symbol id="i" overflow="visible">
            <path d="m0.03125-1.5h0.48438l0.39062 1.0156 0.34375-1.0156h0.48438l-0.625 1.6406c-0.0625 0.16406-0.14062 0.28125-0.23438 0.34375-0.085938 0.070313-0.19531 0.10938-0.32812 0.10938h-0.26562v-0.3125h0.14062c0.082031 0 0.14062-0.015625 0.17188-0.046875 0.039062-0.023437 0.070312-0.070313 0.09375-0.14062l0.015625-0.03125z"/>
        </symbol>
        <symbol id="c" overflow="visible">
            <path d="m1.3906-1.4531v0.375c-0.09375-0.050781-0.19531-0.085937-0.29688-0.10938-0.09375-0.019531-0.18359-0.03125-0.26562-0.03125-0.085937 0-0.15234 0.015625-0.20312 0.046875-0.042969 0.023437-0.0625 0.054687-0.0625 0.09375 0 0.042969 0.015625 0.074219 0.046875 0.09375 0.03125 0.023437 0.09375 0.039063 0.1875 0.046875l0.078125 0.015625c0.25 0.03125 0.41406 0.085937 0.5 0.15625 0.082031 0.0625 0.125 0.17188 0.125 0.32812s-0.0625 0.27734-0.1875 0.35938c-0.11719 0.074219-0.28906 0.10938-0.51562 0.10938-0.10547 0-0.21094-0.011719-0.3125-0.03125-0.10547-0.0078125-0.21094-0.03125-0.3125-0.0625v-0.35938c0.09375 0.054687 0.1875 0.089844 0.28125 0.10938 0.10156 0.023438 0.20703 0.03125 0.3125 0.03125 0.09375 0 0.16016-0.007812 0.20312-0.03125 0.050781-0.03125 0.078125-0.070312 0.078125-0.125 0-0.039062-0.015625-0.070312-0.046875-0.09375-0.03125-0.019531-0.10156-0.035156-0.20312-0.046875l-0.078125-0.015625c-0.21875-0.019531-0.37109-0.066406-0.45312-0.14062-0.085937-0.070313-0.125-0.17969-0.125-0.32812 0-0.15625 0.050781-0.26953 0.15625-0.34375 0.11328-0.082031 0.28125-0.125 0.5-0.125 0.09375 0 0.1875 0.011719 0.28125 0.03125 0.10156 0.011719 0.20703 0.027344 0.3125 0.046875z"/>
        </symbol>
        <symbol id="b" overflow="visible">
            <path d="m1.7344-0.90625v0.90625h-0.48438v-0.6875c0-0.13281-0.007812-0.22266-0.015625-0.26562 0-0.050781-0.007813-0.09375-0.015625-0.125-0.023438-0.03125-0.046875-0.050781-0.078125-0.0625-0.03125-0.019531-0.070313-0.03125-0.10938-0.03125-0.10547 0-0.1875 0.042969-0.25 0.125-0.054688 0.074219-0.078125 0.17969-0.078125 0.3125v0.73438h-0.46875v-2.0781h0.46875v0.79688c0.070313-0.082031 0.14844-0.14453 0.23438-0.1875 0.082031-0.039062 0.17188-0.0625 0.26562-0.0625 0.17578 0 0.30469 0.054688 0.39062 0.15625 0.09375 0.10547 0.14062 0.26172 0.14062 0.46875z"/>
        </symbol>
        <symbol id="h" overflow="visible">
            <path d="m1.7344-0.90625v0.90625h-0.48438v-0.70312c0-0.125-0.007812-0.20703-0.015625-0.25 0-0.050781-0.007813-0.09375-0.015625-0.125-0.023438-0.03125-0.046875-0.050781-0.078125-0.0625-0.03125-0.019531-0.070313-0.03125-0.10938-0.03125-0.10547 0-0.1875 0.042969-0.25 0.125-0.054688 0.074219-0.078125 0.17969-0.078125 0.3125v0.73438h-0.46875v-1.5h0.46875v0.21875c0.070313-0.082031 0.14844-0.14453 0.23438-0.1875 0.082031-0.039062 0.17188-0.0625 0.26562-0.0625 0.17578 0 0.30469 0.054688 0.39062 0.15625 0.09375 0.10547 0.14062 0.26172 0.14062 0.46875z"/>
        </symbol>
        <symbol id="u" overflow="visible">
            <path d="m0.23438-2.0781h0.46875v1.125l0.54688-0.54688h0.5625l-0.73438 0.6875 0.79688 0.8125h-0.57812l-0.59375-0.625v0.625h-0.46875z"/>
        </symbol>
        <symbol id="t" overflow="visible">
            <path d="m0.23438-1.5h0.46875v1.5h-0.46875zm0-0.57812h0.46875v0.39062h-0.46875z"/>
        </symbol>
        <symbol id="s" overflow="visible">
            <path d="m1.25-0.25c-0.074219 0.085938-0.15234 0.14844-0.23438 0.1875-0.074219 0.042969-0.16406 0.0625-0.26562 0.0625-0.17969 0-0.32812-0.070312-0.45312-0.21875-0.11719-0.14453-0.17188-0.32812-0.17188-0.54688s0.054688-0.39844 0.17188-0.54688c0.125-0.14453 0.27344-0.21875 0.45312-0.21875 0.10156 0 0.19141 0.023438 0.26562 0.0625 0.082031 0.042969 0.16016 0.10547 0.23438 0.1875v-0.21875h0.48438v1.3438c0 0.23828-0.078125 0.42188-0.23438 0.54688-0.15625 0.13281-0.375 0.20312-0.65625 0.20312-0.09375 0-0.1875-0.011719-0.28125-0.03125-0.085938-0.011719-0.16797-0.03125-0.25-0.0625v-0.375c0.082031 0.050781 0.16016 0.085938 0.23438 0.10938 0.082031 0.03125 0.16406 0.046875 0.25 0.046875 0.15625 0 0.26953-0.039062 0.34375-0.10938 0.070313-0.074219 0.10938-0.17969 0.10938-0.32812zm-0.3125-0.9375c-0.10547 0-0.18359 0.039062-0.23438 0.10938-0.054687 0.074219-0.078125 0.17969-0.078125 0.3125 0 0.13672 0.023438 0.24219 0.078125 0.3125 0.050781 0.074219 0.12891 0.10938 0.23438 0.10938 0.09375 0 0.16406-0.035156 0.21875-0.10938 0.0625-0.070313 0.09375-0.17578 0.09375-0.3125 0-0.13281-0.03125-0.23828-0.09375-0.3125-0.054688-0.070313-0.125-0.10938-0.21875-0.10938z"/>
        </symbol>
        <symbol id="r" overflow="visible">
            <path d="m1.2188-2.0781v0.3125h-0.26562c-0.074219 0-0.125 0.015625-0.15625 0.046875-0.023437 0.023438-0.03125 0.0625-0.03125 0.125v0.09375h0.40625v0.34375h-0.40625v1.1562h-0.46875v-1.1562h-0.25v-0.34375h0.25v-0.09375c0-0.16406 0.039063-0.28516 0.125-0.35938 0.09375-0.082031 0.23438-0.125 0.42188-0.125z"/>
        </symbol>
        <symbol id="g" overflow="visible">
            <path d="m0.9375-1.1875c-0.10547 0-0.1875 0.039062-0.25 0.10938-0.054688 0.074219-0.078125 0.18359-0.078125 0.32812 0 0.14844 0.023437 0.26172 0.078125 0.34375 0.0625 0.074219 0.14453 0.10938 0.25 0.10938 0.10156 0 0.17969-0.035156 0.23438-0.10938 0.0625-0.082031 0.09375-0.19531 0.09375-0.34375 0-0.14453-0.03125-0.25391-0.09375-0.32812-0.054687-0.070313-0.13281-0.10938-0.23438-0.10938zm0-0.34375c0.25781 0 0.46094 0.074219 0.60938 0.21875 0.14453 0.13672 0.21875 0.32422 0.21875 0.5625 0 0.25-0.074219 0.44531-0.21875 0.57812-0.14844 0.13672-0.35156 0.20312-0.60938 0.20312-0.26172 0-0.46484-0.066406-0.60938-0.20312-0.13672-0.13281-0.20312-0.32812-0.20312-0.57812 0-0.23828 0.066406-0.42578 0.20312-0.5625 0.14453-0.14453 0.34766-0.21875 0.60938-0.21875z"/>
        </symbol>
        <symbol id="q" overflow="visible">
            <path d="m1.6094-1.25c0.0625-0.09375 0.13281-0.16016 0.21875-0.20312 0.082031-0.050781 0.17578-0.078125 0.28125-0.078125 0.16406 0 0.29688 0.054688 0.39062 0.15625 0.09375 0.10547 0.14062 0.26172 0.14062 0.46875v0.90625h-0.48438v-0.78125-0.03125-0.0625c0-0.10156-0.015625-0.17578-0.046875-0.21875-0.03125-0.050781-0.085937-0.078125-0.15625-0.078125-0.085937 0-0.15234 0.039063-0.20312 0.10938-0.054688 0.074219-0.078125 0.18359-0.078125 0.32812v0.73438h-0.48438v-0.78125c0-0.16406-0.015625-0.26953-0.046875-0.3125-0.023437-0.050781-0.070313-0.078125-0.14062-0.078125-0.09375 0-0.16797 0.042969-0.21875 0.125-0.054688 0.074219-0.078125 0.17969-0.078125 0.3125v0.73438h-0.46875v-1.5h0.46875v0.21875c0.0625-0.082031 0.12891-0.14453 0.20312-0.1875 0.082031-0.039062 0.16406-0.0625 0.25-0.0625 0.10156 0 0.19141 0.027344 0.26562 0.078125 0.082031 0.054687 0.14453 0.12109 0.1875 0.20312z"/>
        </symbol>
        <symbol id="p" overflow="visible">
            <path d="m0.25-2h0.57812l0.71875 1.375v-1.375h0.48438v2h-0.5625l-0.73438-1.375v1.375h-0.48438z"/>
        </symbol>
        <symbol id="o" overflow="visible">
            <path d="m0.21875-0.57812v-0.92188h0.46875v0.15625 0.3125 0.23438 0.26562c0.007812 0.054688 0.023438 0.089844 0.046875 0.10938 0.019531 0.03125 0.046875 0.058594 0.078125 0.078125 0.03125 0.011719 0.066406 0.015625 0.10938 0.015625 0.09375 0 0.16406-0.035156 0.21875-0.10938 0.0625-0.070312 0.09375-0.17578 0.09375-0.3125v-0.75h0.48438v1.5h-0.48438v-0.21875c-0.074219 0.09375-0.15234 0.16406-0.23438 0.20312-0.074219 0.03125-0.15625 0.046875-0.25 0.046875-0.17969 0-0.3125-0.050781-0.40625-0.15625-0.085938-0.10156-0.125-0.25391-0.125-0.45312z"/>
        </symbol>
        <symbol id="n" overflow="visible">
            <path d="m0.25-2h0.85938c0.25 0 0.44141 0.058594 0.57812 0.17188 0.13281 0.11719 0.20312 0.27734 0.20312 0.48438 0 0.21094-0.070313 0.37109-0.20312 0.48438-0.13672 0.11719-0.32812 0.17188-0.57812 0.17188h-0.34375v0.6875h-0.51562zm0.51562 0.375v0.5625h0.28125c0.10156 0 0.17969-0.019531 0.23438-0.0625 0.050781-0.050781 0.078125-0.125 0.078125-0.21875s-0.027344-0.16016-0.078125-0.20312c-0.054688-0.050781-0.13281-0.078125-0.23438-0.078125z"/>
        </symbol>
        <symbol id="m" overflow="visible">
            <path d="m0.23438-1.5h0.46875v1.4688c0 0.20703-0.046875 0.36328-0.14062 0.46875-0.09375 0.10156-0.23438 0.15625-0.42188 0.15625h-0.23438v-0.3125h0.078125c0.09375 0 0.15625-0.023438 0.1875-0.0625 0.039063-0.042969 0.0625-0.125 0.0625-0.25zm0-0.57812h0.46875v0.39062h-0.46875z"/>
        </symbol>
        <symbol id="l" overflow="visible">
            <path d="m1.4375-1.4531v0.39062c-0.0625-0.039062-0.13281-0.070312-0.20312-0.09375-0.0625-0.019531-0.13281-0.03125-0.20312-0.03125-0.125 0-0.23047 0.042969-0.3125 0.125-0.074219 0.074219-0.10938 0.17969-0.10938 0.3125 0 0.14844 0.035156 0.26172 0.10938 0.34375 0.082031 0.074219 0.1875 0.10938 0.3125 0.10938 0.082031 0 0.15625-0.007813 0.21875-0.03125 0.070312-0.03125 0.13281-0.066406 0.1875-0.10938v0.39062c-0.074219 0.03125-0.15234 0.050781-0.23438 0.0625-0.074219 0.0078125-0.14844 0.015625-0.21875 0.015625-0.27344 0-0.48438-0.066406-0.64062-0.20312-0.14844-0.13281-0.21875-0.32812-0.21875-0.57812 0-0.23828 0.070312-0.42578 0.21875-0.5625 0.15625-0.14453 0.36719-0.21875 0.64062-0.21875 0.070313 0 0.14453 0.011719 0.21875 0.03125 0.082031 0.011719 0.16016 0.027344 0.23438 0.046875z"/>
        </symbol>
    </defs>
    <g>
        <path d="m384.45 110.3c0 28.633-23.211 51.844-51.844 51.844s-51.844-23.211-51.844-51.844c0-28.633 23.211-51.844 51.844-51.844s51.844 23.211 51.844 51.844"/>
        <path d="m373.52 110.3c0 1.2578-0.054687 2.5156-0.16406 3.8281 0 0.27344 0 2.0781-0.21875 2.2422 0.21875-0.16406 0.38281-2.3516 0.10938-0.71094-0.49219 2.6797-1.0391 5.25-1.9141 7.875-0.16406 0.49219-0.82031 3.1719-1.2578 3.3906 0.65625-0.32813 0.98438-2.0234 0.10938-0.27344-0.27344 0.54688-0.49219 1.0938-0.76563 1.6406-1.2031 2.3516-2.5703 4.5938-4.1016 6.7266-0.16406 0.21875-0.65625 1.0938-0.82031 1.1484 0.27344-0.38281 0.54687-0.71094 0.82031-1.0938-0.27344 0.38281-0.60156 0.71094-0.92969 1.0938-0.71094 0.82031-1.4219 1.5859-2.1328 2.3516-0.82031 0.875-1.6953 1.6953-2.5703 2.4609-0.4375 0.38281-0.875 0.76562-1.3125 1.1484-0.38281 0.32813-0.71094 0.60156-1.0938 0.92969 0.38281-0.27344 0.71094-0.54688 1.0938-0.82031-0.21875 0.65625-2.2969 1.6406-2.8984 2.0781-0.98438 0.65625-2.0234 1.2578-3.0625 1.8594-1.0391 0.60156-2.1328 1.1484-3.1719 1.6406-0.21875 0.10938-0.4375 0.21875-0.65625 0.32813-1.0938 0.49219-0.875 0.38281 0.60156-0.21875-0.10938 0.32812-1.75 0.65625-2.0234 0.76562-2.2969 0.82031-4.6484 1.4766-7.0547 1.9688-0.49219 0.10938-0.98437 0.16406-1.4766 0.27344-0.92969 0.16406-2.8438-0.054688-0.054688 0.054688-1.4766-0.054688-3.0625 0.27344-4.5391 0.32812-2.4062 0.054688-4.8125-0.10937-7.2188-0.27344-1.6406-0.10938 2.7891 0.49219 0.32812 0.054687-0.60156-0.10937-1.2031-0.21875-1.8047-0.32812-1.3125-0.27344-2.625-0.54688-3.9375-0.92969-1.1484-0.32812-2.3516-0.71094-3.4453-1.0938-0.27344-0.10938-1.9141-0.54688-2.0234-0.76562 0 0 2.5156 1.1484 0.60156 0.21875-2.3516-1.1484-4.7031-2.3516-6.8906-3.8281-0.54688-0.38281-2.6797-1.4219-2.8984-2.0781 0.21875 0.60156 1.6406 1.3125 0.54687 0.38281-0.54687-0.49219-1.0938-0.92969-1.6406-1.3672-1.9688-1.75-3.6641-3.6641-5.4141-5.6328-0.92969-1.0938-0.21875 0.32812 0.38281 0.54687-0.38281-0.16406-1.0391-1.3672-1.2578-1.75-0.60156-0.875-1.2031-1.8047-1.75-2.6797-0.60156-1.0391-1.2031-2.0781-1.75-3.1172-0.27344-0.54688-0.54688-1.0938-0.82031-1.5859-0.21875-0.4375-0.38281-0.875-0.60156-1.3125 0.16406 0.4375 0.38281 0.875 0.54688 1.2578-0.49219-0.21875-1.0391-2.7891-1.2578-3.3906-0.38281-1.1484-0.71094-2.3516-0.98437-3.5-0.27344-1.2031-0.54688-2.4062-0.76563-3.6094-0.054687-0.21875-0.054687-0.49219-0.10937-0.71094-0.16406-1.2031-0.16406-0.98438 0.10937 0.71094-0.21875-0.16406-0.21875-2.0234-0.21875-2.2422-0.16406-2.5156-0.16406-5.0859 0-7.6016 0.054688-0.49219 0.10938-0.98437 0.10938-1.4766 0.16406-2.625-0.4375 2.5156 0-0.054688 0.27344-1.4766 0.54687-2.8984 0.875-4.3203 0.54687-2.2422 1.4219-4.375 2.1328-6.5625 0.4375-1.4766-1.1484 2.4609-0.10938 0.27344 0.27344-0.54688 0.49219-1.0938 0.76562-1.6406 0.60156-1.1484 1.2031-2.3516 1.9141-3.4453 0.60156-1.0391 1.2578-2.0234 1.9141-3.0078 0.21875-0.32813 0.92969-1.6406 1.2578-1.75-0.054688 0-1.75 2.0781-0.38281 0.54687 1.6953-1.9688 3.4453-3.8828 5.4141-5.6328 0.4375-0.38281 0.92969-0.76562 1.3672-1.1484 0.10938-0.054687 0.16406-0.16406 0.27344-0.21875 0.92969-0.71094 0.71094-0.60156-0.54687 0.38281 0.21875-0.65625 2.4062-1.6953 2.8984-2.0781 2.1875-1.4219 4.5391-2.625 6.8906-3.8281 1.4219-0.71094-0.49219-0.054687-0.60156 0.21875 0.10937-0.27344 1.3672-0.54688 1.6953-0.65625 1.1484-0.4375 2.2969-0.82031 3.4453-1.1484 1.2031-0.32813 2.3516-0.65625 3.5547-0.875 0.60156-0.10938 1.2031-0.27344 1.8047-0.32813 0.49219-0.10937 0.98437-0.16406 1.4766-0.21875-0.49219 0.054688-0.92969 0.10938-1.4219 0.21875 0.21875-0.38281 3.1719-0.27344 3.7734-0.27344 1.2578-0.054687 2.5703-0.054687 3.8281-0.054687 1.2578 0.054687 2.5156 0.16406 3.7734 0.21875 2.625 0.21875-2.5156-0.49219 0.054687 0 0.71094 0.10937 1.4766 0.27344 2.1875 0.38281 2.7344 0.54688 5.4141 1.4219 8.0391 2.3516 1.9688 0.71094 0.16406-0.38281-0.27344-0.16406 0.27344-0.10938 1.5859 0.71094 1.9688 0.92969 1.3125 0.65625 2.5703 1.3125 3.7734 2.0781 1.2031 0.71094 2.4062 1.5312 3.5547 2.3516 0.054688 0.054687 1.0938 0.65625 1.1484 0.82031-1.2578-0.98438-1.4766-1.0938-0.54688-0.38281 0.38281 0.32812 0.71094 0.60156 1.0938 0.92969 1.9688 1.6953 3.8281 3.5547 5.4688 5.5781 0.16406 0.16406 0.32812 0.38281 0.4375 0.54687 0.71094 0.92969 0.60156 0.71094-0.38281-0.54687 0.4375 0.16406 1.0391 1.4219 1.2578 1.75 0.82031 1.1484 1.5859 2.3516 2.2969 3.6094 0.65625 1.1484 1.2578 2.2969 1.8594 3.5 0.10938 0.27344 0.875 1.4219 0.76562 1.6406-0.60156-1.5312-0.71094-1.6953-0.27344-0.60156 0.10938 0.21875 0.16406 0.4375 0.27344 0.65625 1.0391 2.7344 1.8047 5.5781 2.3516 8.4219 0.10938 0.49219 0.16406 0.98438 0.27344 1.4766 0.16406 1.2031 0.16406 0.98438-0.10938-0.71094 0.054687 0.49219 0.10938 0.98438 0.16406 1.4766 0.21875 1.3125 0.27344 2.8438 0.27344 4.375 0.054687 5.7422 4.9766 11.211 10.938 10.938 5.9062-0.27344 10.992-4.8125 10.938-10.938-0.21875-26.578-16.953-49.875-41.727-59.117-23.789-8.9141-52.664-1.2031-68.797 18.43-8.6406 10.445-13.672 22.641-14.82 36.148-1.0938 12.633 2.1328 25.812 8.6406 36.641 13.727 22.969 40.523 34.344 66.609 29.367 28.984-5.5234 49.93-32.375 50.148-61.469 0.054688-5.7422-5.0859-11.211-10.938-10.938-6.0156 0.27344-10.938 4.8125-10.992 10.938z"/>
        <path d="m446.25 344.8v59.883h-186.48v-144.98c0-32.594 27.344-59.008 59.938-59.008h25.867c32.594 0 58.023 26.469 58.023 59.008v24.281c9.2969 3.2812 17.117 8.4766 23.789 15.203 11.703 11.703 18.867 27.836 18.867 45.609z"/>
        <path d="m435.31 344.8v52.391 7.4922l10.938-10.938h-63.109-100.46-22.859c3.6641 3.6641 7.2734 7.2734 10.938 10.938v-47.305-77.219-19.578-1.6406c0-1.0391 0.054688-2.0234 0.10938-3.0625 0.054687-0.65625 0.10937-1.2578 0.16406-1.8594 0.16406-1.8594-0.54688-0.60156-0.054688 0.27344-0.32812-0.54688 0.4375-2.6797 0.60156-3.2812 0.27344-1.3125 0.60156-2.625 0.98438-3.9375 0.27344-0.92969 0.54688-1.8594 0.875-2.7891 0.21875-0.65625 0.71094-3.0078 1.2578-3.4453-0.054687 0.054688-1.1484 2.4609-0.21875 0.60156 0.27344-0.54687 0.49219-1.0938 0.76563-1.6406 0.60156-1.2031 1.2031-2.3516 1.8594-3.5 1.0938-1.8594 2.2969-3.6641 3.5547-5.4141 0.82031-1.1484-0.32812-0.27344-0.38281 0.49219 0-0.21875 0.71094-0.875 0.92969-1.0938 0.92969-1.0938 1.9141-2.1875 2.8984-3.2266 1.4766-1.5859 3.0625-3.0625 4.7578-4.4297 0.21875-0.16406 0.92969-0.92969 1.0938-0.92969-0.60156 0.054687-1.6953 1.2578-0.49219 0.38281 1.2031-0.82031 2.3516-1.6953 3.5547-2.4609 1.8594-1.1484 3.7188-2.2422 5.6875-3.2266 0.65625-0.32813 1.9141-1.3125 2.625-1.2578-1.4219-0.10938-1.6953 0.71094-0.21875 0.10938 0.82031-0.32812 1.5859-0.60156 2.4062-0.875 2.0781-0.71094 4.2656-1.3125 6.3984-1.8047 0.98438-0.21875 1.9688-0.38281 2.9531-0.54687 2.4609-0.49219-1.9688 0.16406-0.32813 0 0.76563-0.054688 1.4766-0.16406 2.2422-0.21875 2.3516-0.21875 4.7031-0.21875 7.0547-0.21875h18.484 5.1953c1.9141 0 3.8281 0.10937 5.7422 0.27344 0.76563 0.054687 2.4609 0.49219-0.32812-0.10938 0.49219 0.10938 0.98437 0.16406 1.4766 0.21875 1.3125 0.21875 2.6797 0.49219 3.9922 0.82031 2.1328 0.49219 4.2109 1.1484 6.2344 1.9141 0.21875 0.054687 1.6406 0.49219 1.6953 0.65625 0-0.10938-2.1328-0.98438-0.65625-0.27344 1.2031 0.54687 2.3516 1.0938 3.5 1.75 1.8594 0.98437 3.7188 2.1328 5.4688 3.3359 0.49219 0.32812 0.98438 0.71094 1.4219 1.0391 1.3672 0.92969-0.4375-0.4375-0.54688-0.4375 0.32812-0.10938 2.6797 2.2422 2.9531 2.5156 1.5859 1.4219 3.0625 2.9531 4.4844 4.5391 0.16406 0.16406 2.1328 2.1875 2.0234 2.4609 0.054688-0.10937-1.3672-1.8594-0.4375-0.54687 0.49219 0.65625 0.98438 1.3672 1.4219 2.0234 1.2031 1.75 2.2969 3.6094 3.2812 5.5234 0.49219 0.92969 0.92969 1.9141 1.4219 2.8984 0.875 1.8594-0.16406-0.60156-0.21875-0.65625 0.4375 0.32812 0.71094 1.8594 0.92969 2.3516 0.76562 2.0781 1.3672 4.1562 1.9141 6.2891 0.27344 1.0938 0.49219 2.1328 0.71094 3.2266 0.10938 0.49219 0.16406 0.98437 0.27344 1.4766 0.4375 2.4062-0.16406-2.1875 0 0.054688 0.27344 2.7891 0.38281 5.5234 0.38281 8.3125v18.102 4.7578c0 5.0859 3.4453 8.9141 8.0391 10.555 0.875 0.32812 1.6953 0.65625 2.5703 0.98438-1.4219-0.54688-0.65625-0.27344 0.27344 0.16406 1.4766 0.71094 2.9531 1.4219 4.375 2.2422 1.2578 0.71094 2.5156 1.4766 3.7734 2.2969 0.71094 0.49219 1.4219 0.98438 2.1875 1.5312 1.6953 1.2031-0.76562-0.71094 0.21875 0.16406 2.3516 2.0234 4.6484 3.9922 6.7266 6.2344 1.0391 1.0938 2.0781 2.2969 3.0625 3.4453 0.875 1.0938 1.1484 0.76562 0.10938 0.10938 0.49219 0.32812 1.1484 1.5859 1.4766 2.0781 1.6953 2.4062 3.1719 4.9766 4.5391 7.6016 0.32813 0.65625 0.60156 1.2578 0.92969 1.9141 1.2578 2.5703-0.76562-2.1328 0.21875 0.49219 0.49219 1.3125 0.98438 2.6797 1.4766 4.0469 0.98438 3.0078 1.6406 6.125 2.2422 9.2422 0.38281 2.1328-0.10938-1.2578 0.054688 0.10938 0.054687 0.71094 0.16406 1.4766 0.21875 2.1875 0.10937 1.6953 0.16406 3.5 0.16406 5.3047 0.054688 5.7422 4.9766 11.211 10.938 10.938 5.9062-0.27344 10.992-4.8125 10.938-10.938-0.21875-31.992-20.617-60.539-50.695-71.312 2.6797 3.5 5.3594 7.0547 8.0391 10.555 0-11.266 0.76562-22.859-0.76562-34.07-2.8438-21.164-15.367-40.469-34.016-51.133-9.5156-5.4688-20.234-8.4219-31.172-9.0234-5.1953-0.27344-10.5-0.054687-15.695-0.054687-5.1406 0-10.336-0.16406-15.477 0.054687-11.102 0.4375-21.984 3.3906-31.773 8.6953-18.43 9.9531-32.594 28.82-35.766 49.656-1.1484 7.4375-1.0391 14.711-1.0391 22.203v74.375c0 19.688-0.27344 39.375 0 59.008v0.98438c0 5.9062 5.0312 10.938 10.938 10.938h63.109 100.46 22.859c5.9062 0 10.938-5.0312 10.938-10.938v-52.391-7.4922c0-5.7422-5.0312-11.211-10.938-10.938-5.8516 0.16406-10.883 4.7031-10.883 10.883z"/>
        <path d="m372.42 404.69v83.398c0 5.4141-3.2266 10.664-8.6406 10.664h-61.797c-5.4141 0-11.102-5.25-11.102-10.664v-83.398z"/>
        <path d="m361.48 404.69v49.547 28.273c0 1.8047-0.10938 3.6641 0 5.4688v0.054688c0.10938 1.8047 0.10938-0.71094 0.21875-0.60156 0.10938 0.10937-0.32812 1.4766-0.32812 1.4766-0.38281 1.75 0.054688-0.76562 0.27344-0.54688 0.10937 0.10938-0.875 1.2031-0.71094 1.2578-0.054688 0 1.4219-1.6953 0.60156-0.875-0.875 0.92969 1.9688-1.1484 0.27344-0.27344 2.0781-1.0938 1.4219-0.60156 0.60156-0.4375 0.49219-0.10938 0.92969-0.16406 1.4219-0.27344h-0.16406c-0.27344-0.054687-0.60156 0-0.875 0-18.758-0.4375-37.516 0-56.273 0h-3.6094-0.76562-0.10938c-1.9141 0.054688-0.10937-0.16406 0 0.054688 0.98438 0.16406 0.92969 0.10938 0-0.16406 0.38281 0.16406 0.82031 0.32812 1.2031 0.54687-0.054688-0.27344-1.3125-0.4375-1.3672-0.76562 0.10938 0.875 2.0234 0.65625 0.38281 0.21875-0.10937-0.10938-0.16406-0.16406-0.27344-0.27344-0.54688-0.60156-0.38281-0.32812 0.4375 0.71094-0.21875-0.16406-0.65625-1.3125-0.82031-1.3125 0.32813 0 0.60156 2.5703 0.27344 0.49219-0.054688-0.32812-0.4375-1.5859-0.054688 0 0.65625 2.7891 0.054688 0.76562 0.10938 0.65625 0.16406-0.38281 0-1.3125 0-1.6953v-23.898-56.547-1.1484l-10.938 10.938h71.477 10.008c5.7422 0 11.211-5.0312 10.938-10.938-0.27344-5.9062-4.8125-10.938-10.938-10.938h-71.477-10.008c-5.9062 0-10.938 5.0312-10.938 10.938v51.953 27.727c0 3.0625-0.10938 6.1797 0.82031 9.1328 3.0078 9.5156 11.867 16.078 21.82 16.133 18.977 0.16406 38.008 0 56.984 0 4.375 0 8.3672-0.10938 12.523-2.0234 7.6562-3.6094 11.156-12.305 11.211-20.289 0.054688-7.3828 0-14.82 0-22.203v-59.227-1.2578c0-5.7422-5.0312-11.211-10.938-10.938-5.9609 0.38281-10.992 4.9219-10.992 11.047z"/>








































    </g>
</svg>
