<svg xmlns="http://www.w3.org/2000/svg" xmlns:xlink="http://www.w3.org/1999/xlink" width="700pt" height="700pt" version="1.1" viewBox="0 0 700 700">

    <g>
        <path d="m350 485.52c113.12 0 205.52-91.84 205.52-205.52s-92.398-205.52-205.52-205.52-205.52 92.398-205.52 205.52 92.398 205.52 205.52 205.52zm-124.32-71.68c33.602-42 77.84-64.961 124.32-64.961s90.719 22.961 124.32 64.961c-32.48 30.238-76.16 48.719-124.32 48.719s-91.84-18.48-124.32-48.719zm124.32-316.96c100.8 0 183.12 82.32 183.12 183.12 0 44.801-16.238 85.68-43.121 117.6-38.078-45.922-87.359-71.121-140-71.121s-101.92 25.199-140 71.121c-26.879-31.922-43.121-72.801-43.121-117.6 0-100.8 82.32-183.12 183.12-183.12z"/>
        <path d="m350 298.48c43.68 0 79.52-35.84 79.52-79.52 0-43.68-35.84-79.52-79.52-79.52s-79.52 35.84-79.52 79.52c0 43.68 35.84 79.52 79.52 79.52zm0-136.64c31.359 0 57.121 25.762 57.121 57.121 0 31.359-25.762 57.117-57.121 57.117s-57.121-25.762-57.121-57.121c0-31.355 25.762-57.117 57.121-57.117z"/>
        <use x="70" y="644" xlink:href="#u"/>
        <use x="90.550781" y="644" xlink:href="#c"/>
        <use x="104.359375" y="644" xlink:href="#a"/>
        <use x="123.347656" y="644" xlink:href="#e"/>
        <use x="142.242188" y="644" xlink:href="#b"/>
        <use x="155.628906" y="644" xlink:href="#a"/>
        <use x="174.617188" y="644" xlink:href="#j"/>
        <use x="204.410156" y="644" xlink:href="#i"/>
        <use x="224.453125" y="644" xlink:href="#h"/>
        <use x="252.453125" y="644" xlink:href="#g"/>
        <use x="262.867188" y="644" xlink:href="#t"/>
        <use x="272.46875" y="644" xlink:href="#s"/>
        <use x="290.71875" y="644" xlink:href="#e"/>
        <use x="309.613281" y="644" xlink:href="#f"/>
        <use x="70" y="672" xlink:href="#r"/>
        <use x="82.183594" y="672" xlink:href="#c"/>
        <use x="95.992188" y="672" xlink:href="#d"/>
        <use x="115.226562" y="672" xlink:href="#q"/>
        <use x="154.152344" y="672" xlink:href="#b"/>
        <use x="167.535156" y="672" xlink:href="#p"/>
        <use x="187.46875" y="672" xlink:href="#a"/>
        <use x="216.207031" y="672" xlink:href="#o"/>
        <use x="239.640625" y="672" xlink:href="#d"/>
        <use x="258.878906" y="672" xlink:href="#n"/>
        <use x="278.8125" y="672" xlink:href="#f"/>
        <use x="308.492188" y="672" xlink:href="#m"/>
        <use x="329.015625" y="672" xlink:href="#c"/>
        <use x="342.820312" y="672" xlink:href="#d"/>
        <use x="362.058594" y="672" xlink:href="#l"/>
        <use x="371.65625" y="672" xlink:href="#a"/>
        <use x="390.648438" y="672" xlink:href="#k"/>
        <use x="407.242188" y="672" xlink:href="#b"/>
    </g>
</svg>
